
        <svg xmlns="http://www.w3.org/2000/svg" xmlns:xlink="http://www.w3.org/1999/xlink" version="1.1" width="3162.1624522567477" height="954.8004102837227" viewBox="0 0 3162.1624522567477 954.8004102837227">
			
			<g transform="scale(8.108122612837384) translate(10, 10)">
				<defs id="SvgjsDefs1597"><linearGradient id="SvgjsLinearGradient1602"><stop id="SvgjsStop1603" stop-color="#51504f" offset="0"/><stop id="SvgjsStop1604" stop-color="#939598" offset="0.5"/><stop id="SvgjsStop1605" stop-color="#51504f" offset="1"/></linearGradient><linearGradient id="SvgjsLinearGradient1606"><stop id="SvgjsStop1607" stop-color="#2d388a" offset="0"/><stop id="SvgjsStop1608" stop-color="#00aeef" offset="1"/></linearGradient></defs><g id="SvgjsG1598" featureKey="nRdZyp-0" transform="matrix(1.0862069180843663,0,0,1.0862069180843663,-7.531758786571198,-5.444189327563206)" fill="#fff"><path xmlns="http://www.w3.org/2000/svg" d="M72.907,63.147l-15.596-9.621V37.427c0-0.994-0.808-1.8-1.801-1.8c-0.995,0-1.801,0.806-1.801,1.8v16.099l-15.571,9.597  c-0.845,0.521-1.109,1.632-0.587,2.478c0.341,0.552,0.93,0.854,1.535,0.854c0.322,0,0.649-0.086,0.943-0.268l15.481-9.542  l15.506,9.566c0.294,0.183,0.621,0.27,0.942,0.27c0.605,0,1.194-0.305,1.535-0.856C74.017,64.78,73.753,63.672,72.907,63.147z"/><g xmlns="http://www.w3.org/2000/svg"><path d="M22.66,88.147c-2.366,0-4.593-0.921-6.266-2.596c-3.453-3.456-3.453-9.076,0-12.531c1.673-1.674,3.9-2.596,6.266-2.596   c2.367,0,4.593,0.922,6.265,2.596c3.454,3.455,3.454,9.075,0,12.531C27.253,87.227,25.026,88.147,22.66,88.147z M22.66,73.126   c-1.646,0-3.193,0.642-4.357,1.806c-2.4,2.401-2.4,6.31,0,8.712c1.164,1.163,2.711,1.804,4.357,1.804   c1.646,0,3.193-0.641,4.355-1.804c2.4-2.402,2.4-6.311,0-8.712C25.851,73.766,24.306,73.126,22.66,73.126z"/></g><g xmlns="http://www.w3.org/2000/svg"><path d="M22.66,69.258c-0.745,0-1.35-0.606-1.35-1.351v-2.994c0-0.746,0.605-1.351,1.35-1.351c0.746,0,1.351,0.604,1.351,1.351   v2.994C24.01,68.651,23.405,69.258,22.66,69.258z"/></g><g xmlns="http://www.w3.org/2000/svg"><path d="M11.28,80.636H8.285c-0.746,0-1.351-0.605-1.351-1.351s0.605-1.35,1.351-1.35h2.996c0.745,0,1.35,0.604,1.35,1.35   S12.025,80.636,11.28,80.636z"/></g><g xmlns="http://www.w3.org/2000/svg"><path d="M37.02,80.636h-2.994c-0.746,0-1.351-0.605-1.351-1.351s0.605-1.35,1.351-1.35h2.994c0.745,0,1.35,0.604,1.35,1.35   S37.765,80.636,37.02,80.636z"/></g><g xmlns="http://www.w3.org/2000/svg"><path d="M12.478,90.818c-0.347,0-0.691-0.132-0.955-0.396c-0.528-0.527-0.528-1.383,0-1.909l2.395-2.395   c0.527-0.527,1.382-0.527,1.91,0c0.527,0.527,0.527,1.383,0,1.909l-2.395,2.395C13.169,90.686,12.822,90.818,12.478,90.818z"/></g><g xmlns="http://www.w3.org/2000/svg"><path d="M14.873,72.851c-0.345,0-0.691-0.131-0.955-0.395l-2.395-2.394c-0.527-0.527-0.527-1.383-0.001-1.91   c0.527-0.527,1.384-0.526,1.911-0.001l2.395,2.394c0.528,0.528,0.528,1.384,0.002,1.911C15.565,72.718,15.219,72.851,14.873,72.851   z"/></g><g xmlns="http://www.w3.org/2000/svg"><path d="M22.66,95.012c-0.745,0-1.35-0.604-1.35-1.349l-0.002-2.995c0-0.746,0.605-1.352,1.351-1.352l0,0   c0.746,0,1.35,0.604,1.35,1.35l0.002,2.995c0,0.745-0.603,1.351-1.349,1.351H22.66z"/></g><g xmlns="http://www.w3.org/2000/svg"><path d="M30.445,72.851c-0.345,0-0.691-0.131-0.955-0.395c-0.527-0.527-0.527-1.383,0-1.91l2.395-2.394   c0.528-0.527,1.382-0.527,1.91,0s0.527,1.383,0,1.909l-2.395,2.395C31.136,72.718,30.792,72.851,30.445,72.851z"/></g><g xmlns="http://www.w3.org/2000/svg"><path d="M32.84,90.818c-0.345,0-0.691-0.132-0.955-0.396l-2.395-2.395c-0.527-0.527-0.527-1.382,0-1.909s1.382-0.527,1.909,0   l2.395,2.395c0.527,0.527,0.527,1.382,0,1.909C33.531,90.686,33.186,90.818,32.84,90.818z"/></g><path xmlns="http://www.w3.org/2000/svg" d="M69.281,12.669l-0.107-0.977l-0.961-0.199c-0.041-0.009-1.015-0.207-2.347-0.207c-5.301,0-8.486,2.868-8.834,7.885  c-0.193,0.353-0.679,1.282-1.211,2.508c-0.371-1.449-0.886-2.802-1.598-3.819c0.011-0.986-0.097-6.231-3.473-9.738  c-2.704-2.809-6.735-3.733-11.873-2.699L37.849,5.63l-0.053,1.049c-0.181,3.604,0.771,6.531,2.834,8.698  c3.418,3.594,8.955,3.982,11.177,3.982c0.071,0,0.126-0.001,0.19-0.002c1.528,2.037,2.094,7.589,2.084,10.831  c-0.001,0.745,0.6,1.352,1.346,1.355c0.002,0,0.003,0,0.005,0c0.744,0,1.347-0.602,1.351-1.346c0-0.208-0.004-0.762-0.032-1.516  c0.02-0.093,0.032-0.19,0.032-0.289c0-2.393,1.485-5.682,2.249-7.212c0.29,0.013,0.589,0.037,0.863,0.037c0.001,0,0.001,0,0.001,0  c3.332,0,5.856-0.929,7.499-2.761C69.613,15.979,69.296,12.803,69.281,12.669z M40.479,7.884c3.652-0.536,6.451,0.174,8.312,2.099  c1.451,1.5,2.128,3.503,2.448,5.123c-1.339-1.563-3.479-3.635-6.117-4.659c-0.461-0.179-0.985,0.051-1.164,0.514  s0.049,0.985,0.513,1.165c2.44,0.947,4.469,3.025,5.65,4.456c-2.232-0.201-5.462-0.884-7.538-3.066  C41.251,12.114,40.545,10.222,40.479,7.884z M65.384,16.653c-1.109,1.237-2.956,1.863-5.488,1.863l0,0c-0.027,0-0.056,0-0.082,0  c0.499-3.007,2.53-4.529,6.052-4.529c0.246,0,0.477,0.009,0.686,0.021C66.447,14.761,66.157,15.79,65.384,16.653z"/><g xmlns="http://www.w3.org/2000/svg"><path d="M89.323,70.545c-0.868-0.907-1.942-1.388-3.103-1.388h-4.265c-1.24,0-2.361,0.485-3.245,1.404   c-1.617,1.683-2.349,4.768-2.175,9.172c0.028,0.727,0.628,1.296,1.349,1.296c0.019,0,0.035,0,0.055-0.001   c0.743-0.029,1.324-0.657,1.295-1.403c-0.189-4.774,0.811-6.556,1.423-7.193c0.022-0.021,0.046-0.037,0.068-0.059v12.294   l0.079,8.785c0,0.746,0.605,1.351,1.351,1.351s1.351-0.604,1.351-1.351v-8.597c0-0.063-0.011-0.126-0.02-0.188h1.384v8.785   c0,0.746,0.604,1.351,1.351,1.351c0.745,0,1.35-0.604,1.35-1.351l0.044-8.785V72.705c0.589,0.81,1.482,2.776,1.29,7.162   c-0.031,0.745,0.544,1.375,1.291,1.409c0.021,0,0.041,0,0.06,0c0.72,0,1.316-0.565,1.349-1.292   C91.796,75.569,91.008,72.305,89.323,70.545z"/><ellipse cx="84.071" cy="64.734" rx="2.778" ry="3.16"/></g></g><g id="SvgjsG1599" featureKey="Q4qmbg-0" transform="matrix(4.12493699653776,0,0,4.12493699653776,108.53505327695447,-3.1196769502117547)" fill="#fff"><path d="M3.82 5.119999999999999 l0 14.88 l-2.98 0 l0 -14.88 l2.98 0 z M15.447708333333333 15.08 l0 0.66 l-7.04 0 c0 1.16 1.18 1.98 2.16 1.98 c0.96 0 1.84 -0.38 2.3 -1.22 l1.98 1.82 c-0.8 1.08 -2.02 1.84 -4.28 1.84 c-3.24 0 -5.22 -2.16 -5.22 -5.08 s1.92 -5.1 5.04 -5.1 s5.06 2.14 5.06 5.1 z M8.467708333333333 13.86 l3.88 0 c-0.16 -0.94 -0.84 -1.44 -1.96 -1.44 c-1.08 0 -1.74 0.58 -1.92 1.44 z M16.075416666666666 15.08 c0 -2.92 1.92 -5.1 4.82 -5.1 c0.64 0 1.9 0.34 2.24 0.82 l0 -5.32 l2.98 0 l0 14.52 l-2.98 0 l0 -0.66 c-0.36 0.46 -1.38 0.82 -2.04 0.82 c-2.9 0 -5.02 -2.16 -5.02 -5.08 z M19.055416666666666 15.08 c0 1.56 1 2.84 2.24 2.84 c1.36 0 2.24 -1.52 2.24 -2.84 s-0.86 -2.86 -2.24 -2.86 c-1.24 0 -2.24 1.28 -2.24 2.86 z M37.423125 15.08 l0 0.66 l-7.04 0 c0 1.16 1.18 1.98 2.16 1.98 c0.96 0 1.84 -0.38 2.3 -1.22 l1.98 1.82 c-0.8 1.08 -2.02 1.84 -4.28 1.84 c-3.24 0 -5.22 -2.16 -5.22 -5.08 s1.92 -5.1 5.04 -5.1 s5.06 2.14 5.06 5.1 z M30.443125 13.86 l3.88 0 c-0.16 -0.94 -0.84 -1.44 -1.96 -1.44 c-1.08 0 -1.74 0.58 -1.92 1.44 z M41.43083333333333 5.119999999999999 l0 14.88 l-2.98 0 l0 -14.88 l2.98 0 z M45.49854166666666 13.04 l-2.2 -1.26 c1.1 -1.24 2.58 -1.82 4.12 -1.82 c2.96 0 4.16 1.62 4.16 3.14 l0 6.9 l-2.96 0 l0 -0.7 c-0.46 0.48 -1.28 0.84 -2.2 0.84 c-2.7 0 -3.74 -1.2 -3.74 -3.04 c0 -2.08 1.68 -3.48 4.4 -3.48 l1.54 0 c0 -0.74 -0.56 -1.22 -1.4 -1.22 c-0.86 0 -1.28 0.16 -1.72 0.64 z M48.618541666666665 16.740000000000002 l0 -0.88 l-1.74 0 c-0.78 0 -1.36 0.54 -1.24 1.3 c0.08 0.54 0.56 0.76 1.24 0.76 c1.3 0 1.74 -0.74 1.74 -1.18 z M58.56625 9.98 c2.9 0 4.82 2.18 4.82 5.1 s-2.12 5.08 -5.02 5.08 c-0.64 0 -1.72 -0.36 -2.04 -0.82 l0 0.66 l-2.96 0 l0 -14.52 l2.96 0 l0 5.34 c0.34 -0.5 1.62 -0.84 2.24 -0.84 z M58.16625 17.92 c1.24 0 2.26 -1.28 2.26 -2.84 c0 -1.58 -1.02 -2.86 -2.26 -2.86 c-1.36 0 -2.24 1.54 -2.24 2.86 s0.9 2.84 2.24 2.84 z"/></g>
			</g>
		</svg>
	